<svg width="25" height="25" viewBox="0 0 25 25" fill="none" xmlns="http://www.w3.org/2000/svg">
<g id="Frame" clip-path="url(#clip0_1_442)">
<path id="Vector" d="M10.2951 2.29895C10.7905 2.24056 11.2898 2.37144 11.6929 2.66541C12.096 2.95938 12.3732 3.39475 12.469 3.88436L12.4951 4.05832L12.5003 4.16666V11.4583C12.5003 11.7135 12.594 11.9597 12.7635 12.1504C12.9331 12.341 13.1667 12.4628 13.4201 12.4927L13.5419 12.5H20.6253C21.1778 12.5 21.7077 12.7195 22.0984 13.1102C22.4891 13.5009 22.7086 14.0308 22.7086 14.5833C22.7086 14.6626 22.6995 14.7416 22.6815 14.8187C22.2647 16.6173 21.3772 18.2728 20.1101 19.6157C18.8431 20.9585 17.2418 21.9405 15.4704 22.461C13.699 22.9814 11.8211 23.0218 10.029 22.5778C8.2369 22.1338 6.59499 21.2215 5.27142 19.9343C3.94785 18.6471 2.99019 17.0312 2.4965 15.2522C2.00281 13.4731 1.99083 11.5948 2.46179 9.80962C2.93276 8.02441 3.86974 6.39646 5.17679 5.09247C6.48383 3.78848 8.11398 2.85531 9.90028 2.38853L10.1815 2.31874L10.2961 2.29791L10.2951 2.29895Z" fill="white"/>
<path id="Vector_2" d="M14.583 3.64581V9.37498C14.583 9.65124 14.6928 9.91619 14.8881 10.1115C15.0835 10.3069 15.3484 10.4166 15.6247 10.4166H21.3538C21.5203 10.4166 21.6844 10.3766 21.8323 10.3001C21.9801 10.2236 22.1075 10.1128 22.2037 9.97686C22.2999 9.84097 22.3622 9.684 22.3852 9.51911C22.4082 9.35421 22.3914 9.1862 22.3361 9.02914C21.8188 7.5597 20.9784 6.22501 19.8769 5.12335C18.7755 4.02168 17.4409 3.18111 15.9715 2.66352C15.8144 2.60803 15.6463 2.59104 15.4813 2.61398C15.3162 2.63692 15.1591 2.69911 15.0231 2.79534C14.8871 2.89157 14.7761 3.01903 14.6995 3.16701C14.623 3.31499 14.583 3.47919 14.583 3.64581Z" fill="white"/>
</g>
<defs>
<clipPath id="clip0_1_442">
<rect width="25" height="25" fill="white"/>
</clipPath>
</defs>
</svg>
