<svg width="22" height="22" viewBox="0 0 22 22" fill="none" xmlns="http://www.w3.org/2000/svg">
<g id="Frame" clip-path="url(#clip0_2_7412)">
<path id="Vector" d="M3.66602 6.41671C3.66602 5.93048 3.85917 5.46416 4.20299 5.12034C4.5468 4.77653 5.01312 4.58337 5.49935 4.58337H16.4993C16.9856 4.58337 17.4519 4.77653 17.7957 5.12034C18.1395 5.46416 18.3327 5.93048 18.3327 6.41671V17.4167C18.3327 17.9029 18.1395 18.3693 17.7957 18.7131C17.4519 19.0569 16.9856 19.25 16.4993 19.25H5.49935C5.01312 19.25 4.5468 19.0569 4.20299 18.7131C3.85917 18.3693 3.66602 17.9029 3.66602 17.4167V6.41671Z" stroke="black" stroke-width="1.375" stroke-linecap="round" stroke-linejoin="round"/>
<path id="Vector_2" d="M14.666 2.75V6.41667" stroke="black" stroke-width="1.375" stroke-linecap="round" stroke-linejoin="round"/>
<path id="Vector_3" d="M7.33398 2.75V6.41667" stroke="black" stroke-width="1.375" stroke-linecap="round" stroke-linejoin="round"/>
<path id="Vector_4" d="M3.66602 10.0834H18.3327" stroke="black" stroke-width="1.375" stroke-linecap="round" stroke-linejoin="round"/>
<path id="Vector_5" d="M6.41602 12.8334H6.42793" stroke="black" stroke-width="1.375" stroke-linecap="round" stroke-linejoin="round"/>
<path id="Vector_6" d="M9.17578 12.8334H9.18078" stroke="black" stroke-width="1.375" stroke-linecap="round" stroke-linejoin="round"/>
<path id="Vector_7" d="M11.9258 12.8334H11.9308" stroke="black" stroke-width="1.375" stroke-linecap="round" stroke-linejoin="round"/>
<path id="Vector_8" d="M14.6797 12.8334H14.6847" stroke="black" stroke-width="1.375" stroke-linecap="round" stroke-linejoin="round"/>
<path id="Vector_9" d="M11.9297 15.5834H11.9347" stroke="black" stroke-width="1.375" stroke-linecap="round" stroke-linejoin="round"/>
<path id="Vector_10" d="M6.42578 15.5834H6.43078" stroke="black" stroke-width="1.375" stroke-linecap="round" stroke-linejoin="round"/>
<path id="Vector_11" d="M9.17578 15.5834H9.18078" stroke="black" stroke-width="1.375" stroke-linecap="round" stroke-linejoin="round"/>
</g>
<defs>
<clipPath id="clip0_2_7412">
<rect width="22" height="22" fill="white"/>
</clipPath>
</defs>
</svg>
