<svg width="34" height="34" viewBox="0 0 34 34" fill="none" xmlns="http://www.w3.org/2000/svg">
<g id="Frame" clip-path="url(#clip0_1_114)">
<path id="Vector" d="M5.66602 11.3334C5.66602 9.83052 6.26304 8.38918 7.32574 7.32648C8.38845 6.26377 9.82979 5.66675 11.3327 5.66675H22.666C24.1689 5.66675 25.6102 6.26377 26.673 7.32648C27.7357 8.38918 28.3327 9.83052 28.3327 11.3334V22.6667C28.3327 24.1696 27.7357 25.611 26.673 26.6737C25.6102 27.7364 24.1689 28.3334 22.666 28.3334H11.3327C9.82979 28.3334 8.38845 27.7364 7.32574 26.6737C6.26304 25.611 5.66602 24.1696 5.66602 22.6667V11.3334Z" stroke="white" stroke-width="1.5" stroke-linecap="round" stroke-linejoin="round"/>
<path id="Vector_2" d="M12.75 17C12.75 18.1272 13.1978 19.2082 13.9948 20.0052C14.7918 20.8022 15.8728 21.25 17 21.25C18.1272 21.25 19.2082 20.8022 20.0052 20.0052C20.8022 19.2082 21.25 18.1272 21.25 17C21.25 15.8728 20.8022 14.7918 20.0052 13.9948C19.2082 13.1978 18.1272 12.75 17 12.75C15.8728 12.75 14.7918 13.1978 13.9948 13.9948C13.1978 14.7918 12.75 15.8728 12.75 17Z" stroke="white" stroke-width="1.5" stroke-linecap="round" stroke-linejoin="round"/>
<path id="Vector_3" d="M23.375 10.625V10.6392" stroke="white" stroke-width="1.5" stroke-linecap="round" stroke-linejoin="round"/>
</g>
<defs>
<clipPath id="clip0_1_114">
<rect width="34" height="34" fill="white"/>
</clipPath>
</defs>
</svg>
