<svg width="26" height="26" viewBox="0 0 26 26" fill="none" xmlns="http://www.w3.org/2000/svg">
<g id="Frame" clip-path="url(#clip0_1_2794)">
<path id="Vector" d="M12.9998 2.16666L13.3508 2.17207C16.1921 2.26418 18.8834 3.46941 20.8441 5.52782C22.8048 7.58622 23.8778 10.3328 23.8318 13.1752C23.7857 16.0176 22.6242 18.7281 20.5979 20.7218C18.5715 22.7156 15.8426 23.8331 12.9998 23.8331C10.1571 23.8331 7.42819 22.7156 5.40183 20.7218C3.37546 18.7281 2.21399 16.0176 2.16793 13.1752C2.12187 10.3328 3.19491 7.58622 5.15562 5.52782C7.11632 3.46941 9.80755 2.26418 12.6488 2.17207L12.9998 2.16666ZM13.6639 7.81082C13.4462 7.64246 13.1725 7.56329 12.8985 7.58939C12.6245 7.61549 12.3707 7.74491 12.1887 7.95135C12.0067 8.1578 11.91 8.4258 11.9184 8.70091C11.9268 8.97602 12.0396 9.23762 12.2339 9.43257L14.7158 11.9167H8.66651L8.53976 11.9242C8.26557 11.9569 8.01418 12.0929 7.83696 12.3047C7.65974 12.5164 7.57005 12.7878 7.58624 13.0635C7.60242 13.3391 7.72324 13.5982 7.92402 13.7877C8.1248 13.9773 8.39039 14.083 8.66651 14.0833H14.7158L12.2339 16.5674L12.144 16.6692C11.9756 16.887 11.8965 17.1606 11.9226 17.4346C11.9487 17.7086 12.0781 17.9624 12.2845 18.1445C12.491 18.3265 12.759 18.4231 13.0341 18.4147C13.3092 18.4063 13.5708 18.2935 13.7658 18.0992L18.0991 13.7659L18.1782 13.6771L18.2475 13.5807L18.3147 13.4582L18.3623 13.3391L18.3948 13.2177L18.4133 13.0812L18.4165 13L18.4089 12.8722L18.3775 12.7118L18.3396 12.5981L18.2811 12.4757L18.2042 12.3554C18.1722 12.3124 18.137 12.2719 18.0991 12.2341L13.7658 7.90074L13.6639 7.81082Z" fill="#73787E"/>
</g>
<defs>
<clipPath id="clip0_1_2794">
<rect width="26" height="26" fill="white"/>
</clipPath>
</defs>
</svg>
