<svg width="219" height="47" viewBox="0 0 219 47" fill="none" xmlns="http://www.w3.org/2000/svg">
<g id="Group 51">
<path id="Vector" d="M213.87 30.302C213.731 31.0004 213.486 31.5939 213.154 32.1174C212.823 32.6405 212.387 33.0601 211.829 33.3911C211.287 33.7058 210.608 33.8797 209.804 33.8797C209.019 33.8797 208.338 33.7231 207.798 33.3911C207.258 33.0753 206.798 32.6395 206.454 32.1174C206.122 31.5944 205.877 31.0004 205.721 30.302C205.567 29.6088 205.491 28.9007 205.494 28.1906C205.494 27.4577 205.564 26.7244 205.704 26.0447C205.843 25.3463 206.087 24.7356 206.419 24.2121C206.75 23.6703 207.187 23.2521 207.745 22.9034C208.286 22.5715 208.967 22.3971 209.769 22.3971C210.554 22.3971 211.218 22.5715 211.759 22.9034C212.301 23.2387 212.76 23.6919 213.103 24.2293C213.452 24.7701 213.696 25.398 213.853 26.0792C214.009 26.7771 214.08 27.475 214.08 28.1906C214.08 28.9062 214.009 29.6041 213.87 30.302ZM218.513 24.6657C218.181 23.4964 217.692 22.4843 217.029 21.5943C216.348 20.7221 215.511 20.006 214.498 19.4829C213.486 18.9594 212.265 18.6801 210.851 18.6801C209.734 18.6801 208.722 18.9072 207.797 19.3435C206.872 19.7799 206.104 20.495 205.511 21.455H205.441V19.1687H200.764V43.3734H205.685V34.8741H205.755C206.335 35.728 207.13 36.4142 208.059 36.8638C209.002 37.3174 210.014 37.5445 211.13 37.5445C212.439 37.5445 213.591 37.283 214.586 36.7767C215.546 36.2849 216.386 35.5877 217.046 34.7347C217.71 33.8797 218.198 32.902 218.513 31.7855C218.844 30.6685 219.001 29.5175 219.001 28.3128C219.001 27.0391 218.844 25.8177 218.513 24.6479V24.6657ZM194.238 30.302C194.098 31.0004 193.854 31.5939 193.522 32.1174C193.19 32.641 192.754 33.0601 192.196 33.3911C191.655 33.7058 190.974 33.8797 190.172 33.8797C189.386 33.8797 188.724 33.7231 188.165 33.3911C187.625 33.075 187.165 32.6393 186.821 32.1174C186.49 31.5944 186.245 31.0004 186.089 30.302C185.934 29.6089 185.858 28.9007 185.862 28.1906C185.862 27.4577 185.931 26.7244 186.07 26.0447C186.211 25.3463 186.454 24.7356 186.786 24.2121C187.118 23.6703 187.554 23.2521 188.112 22.9034C188.653 22.5715 189.334 22.3971 190.136 22.3971C190.922 22.3971 191.585 22.5715 192.126 22.9034C192.668 23.2386 193.127 23.6918 193.47 24.2293C193.819 24.7701 194.063 25.398 194.221 26.0792C194.377 26.7771 194.447 27.475 194.447 28.1906C194.447 28.9062 194.377 29.6041 194.238 30.302ZM197.396 21.5943C196.733 20.7221 195.878 20.006 194.866 19.4829C193.854 18.9594 192.632 18.6801 191.218 18.6801C190.101 18.6801 189.09 18.9072 188.164 19.3435C187.24 19.7799 186.472 20.495 185.878 21.455H185.808V19.1687H181.131V43.3734H186.052V34.8741H186.123C186.703 35.728 187.497 36.4142 188.427 36.8638C189.368 37.3174 190.38 37.5445 191.497 37.5445C192.823 37.5445 193.958 37.283 194.953 36.7767C195.913 36.2846 196.753 35.5874 197.413 34.7347C198.077 33.8797 198.566 32.902 198.898 31.7855C199.219 30.6559 199.384 29.4873 199.386 28.3128C199.386 27.0391 199.229 25.8177 198.898 24.6479C198.566 23.4792 198.077 22.4666 197.396 21.5771V21.5943ZM165.006 27.5277L168.234 18.4353H168.304L171.428 27.5277H165.006ZM165.53 12.3276L156.158 37.0904H161.638L163.576 31.5762H172.842L174.709 37.0904H180.363L171.097 12.3276H165.512H165.53ZM155.757 29.2377C155.425 28.6792 155.006 28.1906 154.466 27.8069C153.942 27.4233 153.331 27.1258 152.65 26.882C151.961 26.6554 151.262 26.4576 150.556 26.289C149.858 26.1314 149.177 25.9743 148.514 25.8349C147.851 25.6955 147.24 25.5379 146.734 25.3636C146.211 25.1892 145.792 24.9627 145.478 24.6829C145.146 24.4037 144.989 24.0549 144.989 23.6013C144.989 23.2349 145.076 22.9379 145.268 22.7109C145.46 22.4843 145.687 22.3272 145.949 22.2051C146.211 22.0829 146.507 22.013 146.839 21.9785C147.14 21.9451 147.443 21.9277 147.746 21.9263C148.619 21.9263 149.387 22.1006 150.033 22.4321C150.679 22.7636 151.045 23.4093 151.097 24.3514H155.774C155.687 23.2344 155.391 22.3272 154.919 21.5938C154.448 20.8605 153.855 20.2852 153.139 19.8489C152.424 19.4125 151.604 19.0988 150.696 18.9067C149.789 18.7146 148.846 18.6274 147.869 18.6274C146.892 18.6274 145.95 18.7151 145.025 18.8889C144.1 19.0633 143.262 19.3603 142.529 19.7967C141.779 20.233 141.185 20.8093 140.75 21.5416C140.295 22.2745 140.069 23.2349 140.069 24.3859C140.069 25.1715 140.225 25.8344 140.557 26.3752C140.872 26.917 141.308 27.3701 141.831 27.7365C142.372 28.0857 142.966 28.3827 143.647 28.6093C144.327 28.8358 145.025 29.0284 145.741 29.185C147.503 29.5514 148.865 29.9179 149.859 30.2843C150.836 30.6507 151.325 31.2092 151.325 31.9421C151.325 32.3785 151.22 32.7449 151.011 33.0414C150.806 33.3312 150.537 33.5699 150.226 33.7393C149.911 33.9137 149.562 34.0363 149.178 34.123C148.818 34.205 148.449 34.246 148.079 34.2451C147.591 34.2451 147.119 34.1934 146.683 34.0708C146.229 33.9486 145.828 33.7733 145.479 33.5295C145.13 33.2852 144.851 32.971 144.624 32.5873C144.397 32.2036 144.292 31.7495 144.292 31.226H139.615C139.667 32.4297 139.93 33.4246 140.436 34.2274C140.924 35.0307 141.57 35.6586 142.338 36.1472C143.106 36.6358 143.996 36.9845 144.991 37.1938C145.985 37.4036 146.997 37.5085 148.044 37.5085C149.057 37.5085 150.068 37.4036 151.046 37.2111C152.023 37.0195 152.896 36.6703 153.664 36.1817C154.432 35.6931 155.042 35.0474 155.514 34.2619C155.985 33.4596 156.229 32.4824 156.229 31.2954C156.229 30.4582 156.072 29.7603 155.74 29.2013L155.757 29.2377ZM135.391 13.7939H130.47V19.1687H127.485V22.4666H130.47V33.0424C130.47 33.9501 130.626 34.6657 130.923 35.2238C131.22 35.7828 131.639 36.2009 132.163 36.5156C132.686 36.8121 133.28 37.0214 133.96 37.1263C134.677 37.233 135.4 37.2853 136.124 37.283C136.613 37.283 137.101 37.2657 137.625 37.2485C138.087 37.2328 138.548 37.1861 139.004 37.1086V33.2867C138.763 33.341 138.518 33.3759 138.271 33.3911C138.004 33.412 137.736 33.4236 137.468 33.4261C136.631 33.4261 136.089 33.2867 135.811 33.0069C135.531 32.7282 135.391 32.1692 135.391 31.3496V22.4666H139.004V19.1687H135.391V13.7939H135.391ZM121.272 30.1627C121.272 30.4414 121.238 30.8083 121.185 31.2797C121.127 31.7617 120.966 32.2258 120.714 32.641C120.452 33.0951 120.068 33.4788 119.527 33.8107C119.004 34.1417 118.236 34.2993 117.277 34.2993C116.893 34.2993 116.508 34.2638 116.125 34.1944C115.758 34.124 115.427 34.0018 115.148 33.828C114.868 33.6531 114.659 33.4266 114.484 33.1123C114.327 32.8158 114.24 32.4494 114.24 31.9953C114.24 31.524 114.327 31.1575 114.484 30.8438C114.641 30.5463 114.868 30.302 115.13 30.0932C115.392 29.9011 115.706 29.7445 116.072 29.6224C116.439 29.5002 116.788 29.4125 117.172 29.3426C117.566 29.2748 117.961 29.2167 118.358 29.1683C118.76 29.1161 119.127 29.0634 119.493 28.9939C119.859 28.9245 120.191 28.8368 120.505 28.7324C120.819 28.628 121.081 28.4881 121.291 28.296V30.1287L121.272 30.1627ZM126.194 33.1118V23.7752C126.194 22.6936 125.949 21.8209 125.461 21.158C124.973 20.4945 124.344 19.9887 123.594 19.6223C122.826 19.2559 121.988 19.0116 121.063 18.8722C120.155 18.7481 119.24 18.6839 118.324 18.6801C117.328 18.6801 116.334 18.785 115.357 18.9771C114.38 19.1692 113.49 19.5002 112.704 19.972C111.931 20.4321 111.269 21.058 110.767 21.8046C110.261 22.5725 109.964 23.5319 109.895 24.6839H114.816C114.903 23.7072 115.235 23.0266 115.793 22.6074C116.352 22.1883 117.102 21.9795 118.079 21.9795C118.516 21.9795 118.934 22.014 119.319 22.0667C119.676 22.1136 120.02 22.2324 120.331 22.4159C120.628 22.5902 120.854 22.8345 121.029 23.1487C121.204 23.4629 121.291 23.8811 121.291 24.4224C121.308 24.9282 121.169 25.3128 120.837 25.5916C120.505 25.8531 120.069 26.0629 119.511 26.2023C118.953 26.3417 118.324 26.4466 117.609 26.5166C116.893 26.5865 116.16 26.6737 115.427 26.7958C114.694 26.9179 113.961 27.0746 113.228 27.2667C112.495 27.4587 111.849 27.7552 111.291 28.1571C110.715 28.558 110.261 29.0816 109.895 29.7273C109.528 30.3907 109.354 31.2285 109.354 32.2406C109.354 33.1655 109.51 33.9683 109.825 34.6313C110.119 35.2776 110.562 35.8456 111.116 36.2896C111.693 36.7377 112.35 37.0696 113.053 37.2667C113.786 37.476 114.589 37.5804 115.444 37.5804C116.561 37.5804 117.643 37.4238 118.707 37.0919C119.76 36.7705 120.715 36.1884 121.482 35.3996C121.5 35.6961 121.552 35.9921 121.604 36.2896C121.657 36.5683 121.744 36.8653 121.831 37.1446H126.823C126.596 36.7781 126.421 36.2191 126.334 35.4863C126.242 34.7161 126.195 33.9412 126.194 33.1655V33.1118H126.194ZM105.916 20.7216C105.427 20.0936 104.764 19.5873 103.927 19.2381C103.089 18.8717 102.007 18.6969 100.68 18.6969C99.7554 18.6969 98.8132 18.9412 97.836 19.4125C96.8589 19.8838 96.0733 20.6517 95.4454 21.681H95.3405V12.3449H90.4192V37.1081H95.3405V27.702C95.3405 25.8694 95.6375 24.5608 96.2482 23.758C96.8417 22.9552 97.8188 22.5715 99.1624 22.5715C100.332 22.5715 101.169 22.9379 101.623 23.6703C102.077 24.4032 102.321 25.5029 102.321 26.9859V37.1081H107.243V26.0792C107.243 24.9622 107.138 23.9505 106.946 23.0428C106.754 22.1351 106.404 21.35 105.916 20.7216ZM79.8956 29.4125H79.8257L75.6029 12.3454H70.5068L66.2135 29.2032H66.1436L62.2167 12.3454H56.7725L63.3338 37.1086H68.8485L72.9669 20.2503H73.0368L77.2252 37.1086H82.635L85.6014 26.1142L89.3012 12.3454H83.9609L79.8956 29.4125Z" fill="#272525"/>
<path id="Vector_2" d="M23.3768 41.4942C19.5325 41.4942 15.9448 40.3354 12.9477 38.3635L5.66032 40.6917L8.02256 33.65C5.74963 30.5299 4.41285 26.6859 4.41285 22.541C4.41285 12.0895 12.9143 3.58801 23.3658 3.58801C33.8173 3.58801 42.3188 12.0895 42.3188 22.541C42.3188 32.9921 33.8173 41.4939 23.3658 41.4939H23.3768V41.4942ZM23.3768 0C10.9304 0 0.835841 10.0955 0.835841 22.5413C0.835841 26.7975 2.01696 30.7865 4.06694 34.1849L0 46.2744L12.4798 42.2744C15.8154 44.1189 19.5652 45.0851 23.3768 45.0823C35.8229 45.0823 45.9178 34.9874 45.9178 22.5413C45.9175 10.0955 35.8229 0 23.3768 0Z" fill="#FEFEFE"/>
<path id="Vector_3" d="M23.3768 3.58789C12.9253 3.58789 4.42383 12.0894 4.42383 22.5408C4.42383 26.6858 5.76092 30.5298 8.03386 33.6499L5.67161 40.6916L12.9586 38.3633C15.9558 40.3466 19.5325 41.4941 23.3878 41.4941C33.8393 41.4941 42.3407 32.9923 42.3407 22.5412C42.3407 12.0897 33.8393 3.58821 23.3878 3.58821H23.3768V3.58789Z" fill="url(#paint0_linear_1_2934)"/>
<path id="Vector_4" d="M18.0841 13.2152C17.7165 12.3351 17.4379 12.3017 16.881 12.2791C16.6695 12.2655 16.4577 12.2581 16.2458 12.2571C15.5213 12.2571 14.7637 12.4687 14.3068 12.9366C13.7499 13.5049 12.3682 14.8306 12.3682 17.5495C12.3682 20.2683 14.3515 22.8979 14.6188 23.2658C14.8974 23.6331 18.4854 29.2934 24.0564 31.6003C28.413 33.4053 29.7057 33.238 30.6972 33.0264C32.1456 32.7144 33.962 31.6443 34.4189 30.3522C34.8758 29.0594 34.8758 27.9563 34.7418 27.7223C34.6082 27.4884 34.2403 27.355 33.6834 27.0761C33.1264 26.7975 30.4186 25.4604 29.906 25.2821C29.4045 25.0928 28.9255 25.1598 28.5469 25.6947C28.012 26.4412 27.4885 27.1991 27.0649 27.6557C26.7306 28.0123 26.1844 28.0569 25.7278 27.8673C25.1149 27.6113 23.3992 27.0091 21.2819 25.1261C19.6439 23.6667 18.5297 21.8507 18.2068 21.3048C17.8835 20.7479 18.1735 20.4243 18.4294 20.1237C18.708 19.7781 18.9753 19.5331 19.2539 19.2098C19.5326 18.8869 19.6885 18.7196 19.8668 18.3407C20.0565 17.9731 19.9225 17.5941 19.7888 17.3155C19.6552 17.0369 18.5411 14.3181 18.0841 13.2152Z" fill="#FEFEFE"/>
</g>
<defs>
<linearGradient id="paint0_linear_1_2934" x1="-138.041" y1="-59.9122" x2="-138.041" y2="-58.5214" gradientUnits="userSpaceOnUse">
<stop stop-color="#6EBF61"/>
<stop offset="0.231" stop-color="#50A557"/>
<stop offset="0.522" stop-color="#2A904F"/>
<stop offset="0.812" stop-color="#50A557"/>
<stop offset="1" stop-color="#6EBF63"/>
</linearGradient>
</defs>
</svg>
