<svg width="27" height="27" viewBox="0 0 27 27" fill="none" xmlns="http://www.w3.org/2000/svg">
<g id="Frame" clip-path="url(#clip0_1_97)">
<path id="Vector" d="M3.375 23.6251L5.23125 19.3501C3.81112 17.3341 3.1755 14.8692 3.44368 12.4179C3.71185 9.96663 4.86538 7.69746 6.6878 6.03627C8.51021 4.37507 10.8762 3.43605 13.3418 3.39542C15.8074 3.35479 18.2031 4.21535 20.0792 5.8156C21.9554 7.41585 23.183 9.64578 23.5318 12.0869C23.8806 14.528 23.3266 17.0125 21.9736 19.0742C20.6207 21.1358 18.5619 22.6328 16.1836 23.2843C13.8053 23.9358 11.271 23.6969 9.05625 22.6126L3.375 23.6251Z" stroke="white" stroke-width="1.6875" stroke-linecap="round" stroke-linejoin="round"/>
<path id="Vector_2" d="M10.125 11.2501C10.125 11.3993 10.1843 11.5424 10.2898 11.6479C10.3952 11.7534 10.5383 11.8126 10.6875 11.8126C10.8367 11.8126 10.9798 11.7534 11.0852 11.6479C11.1907 11.5424 11.25 11.3993 11.25 11.2501V10.1251C11.25 9.97594 11.1907 9.83286 11.0852 9.72737C10.9798 9.62188 10.8367 9.56262 10.6875 9.56262C10.5383 9.56262 10.3952 9.62188 10.2898 9.72737C10.1843 9.83286 10.125 9.97594 10.125 10.1251V11.2501ZM10.125 11.2501C10.125 12.742 10.7176 14.1727 11.7725 15.2276C12.8274 16.2825 14.2582 16.8751 15.75 16.8751M15.75 16.8751H16.875C17.0242 16.8751 17.1673 16.8159 17.2727 16.7104C17.3782 16.6049 17.4375 16.4618 17.4375 16.3126C17.4375 16.1634 17.3782 16.0204 17.2727 15.9149C17.1673 15.8094 17.0242 15.7501 16.875 15.7501H15.75C15.6008 15.7501 15.4577 15.8094 15.3523 15.9149C15.2468 16.0204 15.1875 16.1634 15.1875 16.3126C15.1875 16.4618 15.2468 16.6049 15.3523 16.7104C15.4577 16.8159 15.6008 16.8751 15.75 16.8751Z" stroke="white" stroke-width="1.6875" stroke-linecap="round" stroke-linejoin="round"/>
</g>
<defs>
<clipPath id="clip0_1_97">
<rect width="27" height="27" fill="white"/>
</clipPath>
</defs>
</svg>
